<?xml version="1.0" encoding="UTF-8"?>
<!-- Generator: Adobe Illustrator 22.1.0, SVG Export Plug-In . SVG Version: 6.00 Build 0)  -->
<svg version="1.1" id="レイヤー_1" xmlns="http://www.w3.org/2000/svg" xmlns:xlink="http://www.w3.org/1999/xlink" x="0px" y="0px" viewBox="0 0 138.6 49.8" style="enable-background:new 0 0 138.6 49.8;" xml:space="preserve">
<style type="text/css">
	.st0{fill:none;}
	.st1{fill:#00A73C;}
	.st2{fill:#C6311D;}
	.st3{fill:#FFFFFF;}
	.st4{fill:#003A95;}
</style>
<rect x="-3.1" y="-1.8" class="st0" width="187.1" height="52.8"/>
<polyline points="21.3,26.3 20.2,26.3 20.2,27 21.2,27 21.2,27.6 20.2,27.6 20.2,28.5 21.4,28.5 21.4,29.1 19.7,29.1 19.7,25.7   21.3,25.7 "/>
<path d="M23.4,29.1H23v-0.4l0,0c-0.1,0.1-0.1,0.3-0.2,0.3c-0.1,0.1-0.2,0.1-0.3,0.1c-0.2,0-0.4-0.1-0.5-0.2  c-0.1-0.2-0.2-0.4-0.2-0.7v-1.7h0.5v1.6c0,0.2,0,0.3,0.1,0.4c0,0.1,0.1,0.1,0.2,0.1c0.1,0,0.2,0,0.2-0.1c0.1-0.1,0.1-0.3,0.1-0.5  v-1.5h0.5"/>
<path d="M24,26.6h0.4V27l0,0c0.1-0.2,0.1-0.3,0.2-0.4c0.1-0.1,0.2-0.2,0.3-0.2h0.1v0.6c0,0,0,0-0.1,0h-0.1c-0.2,0-0.3,0.1-0.4,0.2  c-0.1,0.1-0.1,0.3-0.1,0.5V29h-0.5"/>
<path d="M26.4,27.3C26.3,27.1,26.2,27,26,27c-0.2,0-0.3,0.1-0.4,0.3c-0.1,0.1-0.1,0.3-0.1,0.5c0,0.2,0,0.4,0.1,0.5  c0.2,0.2,0.3,0.2,0.5,0.2c0.2,0,0.3-0.1,0.4-0.3c0.1-0.1,0.1-0.3,0.1-0.5C26.5,27.6,26.5,27.5,26.4,27.3 M26.7,28.8  c-0.2,0.2-0.4,0.4-0.6,0.4c-0.3,0-0.5-0.1-0.6-0.4c-0.1-0.3-0.2-0.5-0.2-1s0.1-0.7,0.3-1c0.2-0.2,0.4-0.4,0.6-0.4  c0.3,0,0.5,0.1,0.6,0.4s0.3,0.5,0.3,1C26.9,28.3,26.8,28.5,26.7,28.8"/>
<path d="M27.9,28.4c0.1,0.2,0.2,0.2,0.3,0.2c0.1,0,0.3-0.1,0.3-0.3c0.1-0.2,0.1-0.3,0.1-0.5s0-0.4-0.1-0.5c-0.1-0.2-0.2-0.3-0.3-0.3  c-0.2,0-0.3,0.1-0.3,0.3c-0.1,0.1-0.1,0.4-0.1,0.5C27.8,28.1,27.8,28.3,27.9,28.4 M27.8,26.9L27.8,26.9c0.1-0.1,0.1-0.2,0.2-0.3  c0.1-0.1,0.2-0.2,0.4-0.2c0.2,0,0.4,0.1,0.5,0.4c0.2,0.3,0.2,0.5,0.2,1c0,0.4-0.1,0.7-0.2,0.9c-0.1,0.3-0.3,0.5-0.5,0.5  c-0.2,0-0.3-0.1-0.4-0.2c-0.1-0.1-0.1-0.2-0.2-0.3l0,0v0.9h-0.5v-3.2h0.5"/>
<path d="M30.5,27.6c0-0.2-0.1-0.4-0.1-0.5C30.3,27,30.3,27,30.2,27c-0.1,0-0.2,0.1-0.3,0.2c-0.1,0.1-0.1,0.2-0.1,0.4  C29.8,27.6,30.5,27.6,30.5,27.6z M30.9,28.4c-0.1,0.3-0.2,0.5-0.3,0.6c-0.1,0.1-0.3,0.2-0.5,0.2c-0.3,0-0.5-0.1-0.6-0.3  c-0.2-0.3-0.3-0.6-0.3-1.1c0-0.3,0-0.5,0.1-0.7c0.2-0.4,0.4-0.5,0.7-0.5c0.2,0,0.4,0.1,0.5,0.3c0.2,0.3,0.3,0.6,0.3,1.1V28h-1.2l0,0  c0,0.2,0,0.3,0.1,0.4c0.1,0.2,0.2,0.2,0.3,0.2c0.1,0,0.1,0,0.2-0.1c0.1-0.1,0.1-0.1,0.1-0.2"/>
<path d="M32.4,27.8L32.4,27.8c-0.2,0.1-0.2,0.1-0.3,0.2c-0.1,0-0.2,0.1-0.2,0.1c-0.1,0.1-0.1,0.2-0.1,0.3c0,0.1,0,0.2,0.1,0.3  c0,0,0.1,0.1,0.2,0.1c0.1,0,0.2,0,0.3-0.1c0.1-0.1,0.1-0.2,0.1-0.4L32.4,27.8L32.4,27.8z M32.8,28.5c0,0.1,0,0.3,0,0.3  s0,0.1,0.1,0.1V29h-0.5c0-0.1,0-0.1,0-0.2c0,0,0-0.1,0-0.2c-0.1,0.1-0.2,0.2-0.2,0.3C32.2,29,32.1,29,31.9,29  c-0.2,0-0.3-0.1-0.4-0.2c-0.1-0.1-0.2-0.4-0.2-0.5c0-0.3,0.1-0.5,0.2-0.5c0.1-0.1,0.2-0.2,0.4-0.3l0.4-0.1c0.1,0,0.1,0,0.1-0.1  c0,0,0.1-0.1,0.1-0.2c0-0.1,0-0.2-0.1-0.3c0,0-0.1,0-0.2,0c-0.1,0-0.2,0-0.2,0.1c0,0.1-0.1,0.1-0.1,0.3h-0.5c0-0.4,0.1-0.6,0.3-0.7  c0.1-0.1,0.3-0.2,0.5-0.2c0.2,0,0.3,0,0.5,0.1c0.2,0.1,0.3,0.4,0.3,0.6"/>
<path d="M34.9,29.1h-0.5v-1.5c0-0.2,0-0.3,0-0.3c0-0.1-0.1-0.2-0.3-0.2c-0.1,0-0.2,0.1-0.3,0.2c-0.1,0.1-0.1,0.3-0.1,0.5v1.4h-0.5  v-2.5h0.5V27l0,0c0.1-0.1,0.1-0.2,0.2-0.3c0.1-0.1,0.2-0.2,0.4-0.2c0.2,0,0.4,0.1,0.5,0.2c0.1,0.2,0.2,0.4,0.2,0.6"/>
<path d="M37.7,27.7l0.3,0.4c0-0.1,0.1-0.2,0.1-0.3c0-0.1,0-0.3,0-0.4c0-0.5-0.1-0.7-0.2-0.9c-0.1-0.2-0.3-0.3-0.4-0.3  c-0.2,0-0.3,0.1-0.4,0.3C37,26.7,37,27.1,37,27.5c0,0.5,0.1,0.7,0.2,0.9c0.1,0.2,0.3,0.3,0.4,0.3h0.1c0.1,0,0.1,0,0.1-0.1l-0.3-0.4  L37.7,27.7z M38.3,29.3l-0.3-0.4c-0.1,0.1-0.2,0.2-0.4,0.2c-0.1,0-0.2,0.1-0.3,0.1c-0.3,0-0.5-0.1-0.6-0.3c-0.3-0.3-0.5-0.8-0.5-1.4  c0-0.7,0.2-1.2,0.5-1.4c0.2-0.2,0.4-0.3,0.6-0.3c0.3,0,0.5,0.1,0.6,0.3c0.3,0.3,0.5,0.8,0.5,1.4c0,0.3,0,0.5-0.1,0.7  c0,0.2-0.1,0.4-0.2,0.5l0.3,0.4"/>
<path d="M40.6,29.1h-0.5v-0.4l0,0C40,28.8,40,29,40,29c-0.1,0.1-0.2,0.1-0.3,0.1c-0.2,0-0.4-0.1-0.5-0.2c-0.1-0.2-0.2-0.4-0.2-0.7  v-1.7h0.5v1.6c0,0.2,0,0.3,0.1,0.4c0,0.1,0.1,0.1,0.2,0.1s0.2,0,0.2-0.1C40,28.4,40,28.2,40,28v-1.5h0.5"/>
<path d="M42,27.8L42,27.8c-0.2,0.1-0.2,0.1-0.3,0.2c-0.1,0-0.2,0.1-0.2,0.1c-0.1,0.1-0.1,0.2-0.1,0.3c0,0.1,0,0.2,0.1,0.3  c0,0,0.1,0.1,0.2,0.1c0.1,0,0.2,0,0.3-0.1c0.1-0.1,0.1-0.2,0.1-0.4L42,27.8L42,27.8z M42.5,28.5c0,0.1,0,0.3,0,0.3s0,0.1,0.1,0.1V29  h-0.5c0-0.1,0-0.1,0-0.2c0,0,0-0.1,0-0.2c-0.1,0.1-0.2,0.2-0.2,0.3C41.9,29,41.8,29,41.6,29c-0.2,0-0.3-0.1-0.4-0.2  c-0.1-0.1-0.2-0.4-0.2-0.5c0-0.3,0.1-0.5,0.2-0.5c0.1-0.1,0.2-0.2,0.4-0.3l0.4-0.1c0.1,0,0.1,0,0.1-0.1c0,0,0.1-0.1,0.1-0.2  c0-0.1,0-0.2-0.1-0.3c0,0-0.1,0-0.2,0c-0.1,0-0.2,0-0.2,0.1c0,0.1-0.1,0.1-0.1,0.3h-0.5c0-0.4,0.1-0.6,0.3-0.7  c0.1-0.1,0.3-0.2,0.5-0.2s0.3,0,0.5,0.1c0.2,0.1,0.3,0.4,0.3,0.6"/>
<rect x="43.1" y="25.7" width="0.5" height="3.4"/>
<path d="M44.3,29.1h0.5v-2.4h-0.5V29.1z M44.3,26.3h0.5v-0.6h-0.5V26.3z"/>
<path d="M45.8,26.6h0.3V27h-0.3v1.4c0,0.1,0,0.1,0,0.2c0,0,0.1,0.1,0.2,0.1h0.1v0.5H46h-0.1h-0.1c-0.2,0-0.3-0.1-0.4-0.2  c-0.1-0.1-0.1-0.2-0.1-0.4V27h-0.3v-0.5h0.3v-0.7h0.5"/>
<path d="M47.6,28.8c-0.1,0.2-0.1,0.4-0.2,0.5c0,0.1-0.1,0.2-0.1,0.3c0,0.1-0.1,0.1-0.2,0.1c-0.1,0-0.2,0-0.3,0c-0.1,0-0.1,0-0.1,0  h-0.1v-0.5l0,0c0,0,0,0,0.1,0s0.2,0,0.2,0c0.1,0,0.1-0.1,0.1-0.2l-0.6-2.4h0.5l0.4,1.7l0,0l0.4-1.7h0.5"/>
<path d="M50.3,27.8h0.6l-0.4-1.4l0,0L50.3,27.8z M50,29.1h-0.5l0.8-3.3h0.5l0.8,3.3h-0.5l-0.2-0.7H50"/>
<path d="M53.1,27.4c0-0.1,0-0.2-0.1-0.3C52.9,27,52.9,27,52.7,27c-0.1,0-0.2,0-0.3,0.1c0,0,0,0.1,0,0.2c0,0.1,0,0.1,0.1,0.2  c0,0,0.1,0.1,0.3,0.1c0.2,0.1,0.4,0.1,0.5,0.2c0.2,0.1,0.3,0.3,0.3,0.5c0,0.4-0.1,0.5-0.3,0.7c-0.1,0.1-0.3,0.2-0.5,0.2  c-0.3,0-0.5-0.1-0.5-0.2c-0.2-0.2-0.3-0.4-0.3-0.7h0.5c0,0.1,0,0.2,0.1,0.3c0.1,0.1,0.2,0.1,0.3,0.1s0.2,0,0.3-0.1  c0-0.1,0.1-0.1,0.1-0.2c0-0.1,0-0.2-0.1-0.2c-0.1,0-0.2-0.1-0.3-0.1c-0.2-0.1-0.4-0.1-0.5-0.2c-0.2-0.1-0.3-0.3-0.3-0.5  c0-0.2,0.1-0.5,0.2-0.5c0.1-0.2,0.3-0.3,0.5-0.3c0.2,0,0.4,0.1,0.5,0.2c0.2,0.1,0.3,0.4,0.3,0.7"/>
<path d="M55,27.4c0-0.1,0-0.2-0.1-0.3C54.8,27,54.8,27,54.6,27c-0.1,0-0.2,0-0.3,0.1c0,0-0.1,0.1-0.1,0.2c0,0.1,0,0.1,0.1,0.2  c0,0,0.1,0.1,0.3,0.1c0.2,0.1,0.4,0.1,0.5,0.2c0.2,0.1,0.3,0.3,0.3,0.5c0,0.4-0.1,0.5-0.3,0.7c-0.1,0.1-0.3,0.2-0.5,0.2  c-0.2,0-0.5-0.1-0.5-0.2c-0.2-0.2-0.3-0.4-0.3-0.7h0.5c0,0.1,0,0.2,0.1,0.3c0.1,0.1,0.2,0.1,0.3,0.1s0.2,0,0.3-0.1  c0-0.1,0.1-0.1,0.1-0.2c0-0.1,0-0.2-0.1-0.2s-0.2-0.1-0.3-0.1c-0.2-0.1-0.4-0.1-0.5-0.2c-0.2-0.1-0.3-0.3-0.3-0.5  c0-0.2,0.1-0.5,0.2-0.5c0.1-0.2,0.3-0.3,0.5-0.3c0.2,0,0.4,0.1,0.5,0.2c0.2,0.1,0.3,0.4,0.3,0.7"/>
<path d="M57.5,29.1H57v-0.4l0,0C57,28.8,57,29,56.9,29c-0.1,0.1-0.2,0.1-0.3,0.1c-0.2,0-0.4-0.1-0.5-0.2C56,28.7,56,28.5,56,28.2  v-1.7h0.5v1.6c0,0.2,0,0.3,0.1,0.4c0.1,0.1,0.1,0.1,0.2,0.1c0.1,0,0.2,0,0.2-0.1C57,28.4,57,28.2,57,28v-1.5h0.5"/>
<path d="M58,26.6h0.5V27l0,0c0.1-0.2,0.1-0.3,0.2-0.4c0.1-0.1,0.2-0.2,0.3-0.2H59v0.6c0,0,0,0-0.1,0h-0.1c-0.2,0-0.3,0.1-0.4,0.2  c-0.1,0.1-0.1,0.3-0.1,0.5V29H58"/>
<path d="M60.4,27.8L60.4,27.8c-0.2,0.1-0.2,0.1-0.3,0.2c-0.1,0-0.2,0.1-0.2,0.1c-0.1,0.1-0.1,0.2-0.1,0.3c0,0.1,0,0.2,0.1,0.3  c0,0,0.1,0.1,0.2,0.1c0.1,0,0.2,0,0.3-0.1c0.1-0.1,0.1-0.2,0.1-0.4L60.4,27.8L60.4,27.8z M60.8,28.5c0,0.1,0,0.3,0,0.3  s0,0.1,0.1,0.1V29h-0.5c0-0.1,0-0.1,0-0.2c0,0,0-0.1,0-0.2c-0.1,0.1-0.2,0.2-0.2,0.3C60.2,29,60.1,29,59.9,29  c-0.2,0-0.3-0.1-0.4-0.2c-0.1-0.1-0.2-0.4-0.2-0.5c0-0.3,0.1-0.5,0.2-0.5c0.1-0.1,0.2-0.2,0.4-0.3l0.4-0.1c0.1,0,0.1,0,0.1-0.1  c0,0,0.1-0.1,0.1-0.2c0-0.1,0-0.2-0.1-0.3c0,0-0.1,0-0.2,0s-0.2,0-0.2,0.1c0,0.1-0.1,0.1-0.1,0.3h-0.5c0-0.4,0.1-0.6,0.3-0.7  c0.1-0.1,0.3-0.2,0.5-0.2c0.2,0,0.3,0,0.5,0.1c0.2,0.1,0.3,0.4,0.3,0.6"/>
<path d="M62.9,29.1h-0.5v-1.5c0-0.2,0-0.3,0-0.3c0-0.1-0.1-0.2-0.3-0.2c-0.1,0-0.2,0.1-0.3,0.2c-0.1,0.1-0.1,0.3-0.1,0.5v1.4h-0.5  v-2.5h0.5V27l0,0c0.1-0.1,0.1-0.2,0.2-0.3c0.1-0.1,0.2-0.2,0.4-0.2s0.4,0.1,0.5,0.2c0.1,0.2,0.2,0.4,0.2,0.6"/>
<path d="M64.9,28.2c0,0.2-0.1,0.5-0.2,0.6c-0.2,0.3-0.4,0.4-0.6,0.4c-0.3,0-0.5-0.2-0.6-0.5c-0.1-0.2-0.2-0.5-0.2-0.8  c0-0.5,0.1-0.7,0.2-1c0.2-0.3,0.4-0.4,0.6-0.4c0.2,0,0.4,0.1,0.5,0.2c0.2,0.2,0.3,0.5,0.3,0.8h-0.5c0-0.1,0-0.2-0.1-0.3  c-0.1-0.1-0.1-0.2-0.2-0.2l0,0c-0.1,0-0.2,0.1-0.3,0.3c-0.1,0.1-0.1,0.3-0.1,0.5s0,0.4,0,0.5c0.1,0.2,0.2,0.3,0.3,0.3  c0.1,0,0.2-0.1,0.3-0.2c0.1-0.1,0.1-0.2,0.1-0.3"/>
<path d="M66.4,27.6c0-0.2-0.1-0.4-0.1-0.5C66.2,27,66.2,27,66.1,27s-0.2,0.1-0.3,0.2c-0.1,0.1-0.1,0.2-0.1,0.4  C65.7,27.6,66.4,27.6,66.4,27.6z M66.8,28.4c-0.1,0.3-0.2,0.5-0.3,0.6c-0.1,0.1-0.3,0.2-0.5,0.2c-0.3,0-0.5-0.1-0.6-0.3  c-0.2-0.3-0.3-0.6-0.3-1.1c0-0.3,0-0.5,0.1-0.7c0.2-0.4,0.4-0.5,0.7-0.5c0.2,0,0.4,0.1,0.5,0.3c0.2,0.3,0.3,0.6,0.3,1.1V28h-1.2l0,0  c0,0.2,0,0.3,0.1,0.4c0.1,0.2,0.2,0.2,0.3,0.2c0.1,0,0.1,0,0.2-0.1c0.1-0.1,0.1-0.1,0.1-0.2"/>
<path class="st1" d="M58.5,15l2.4,4.7H57l-2.6,4.9h12.5c2,0,0.8-1.9,0.8-1.9L62,12.3c0,0-0.8-1.8-2.9-1.8h-1.4  c-1.8,0-2.8,1.8-2.8,1.8l-5.3,10.4c0,0-1,1.9,0.9,1.9h2.9"/>
<path class="st1" d="M26.8,19.1h7.8l1.6-3h-7.8c-0.3,0-0.5-0.7,0.4-0.7h7.8l1.6-3c0,0,1.1-1.9-0.9-1.9h-9.8c-1.9,0-2.8,1.8-2.8,1.8  l-5.4,10.4c0,0-1.1,1.9,0.9,1.9h9.8c1.9,0,2.9-1.9,2.9-1.9l1.5-3h-7.8C26,19.7,26.1,19.1,26.8,19.1"/>
<path class="st1" d="M46.1,15.5h-1.6c-1.7,0-2.5,1.6-2.5,1.6l-1.4,2.5h-1.9l2.7,4.8h-5.2c-3.4,0-1.9-2.4-1.9-2.4l5.1-9.3  c0,0,1.2-2.4,2.9-2.4h9c3,0,1.9,2.4,1.9,2.4c-0.9,2.3-5.4,10.9-5.4,10.9l-2.6-4.5l1.4-2.4C46.6,16.6,47.2,15.5,46.1,15.5"/>
<polyline class="st1" points="40,20.3 42.5,24.5 47.3,24.5 44.8,20.3 "/>
<rect x="89.4" y="28.6" class="st2" width="21.4" height="2.7"/>
<rect x="79.7" y="29.8" class="st2" width="12" height="0.3"/>
<rect x="109.2" y="29.8" class="st2" width="11.4" height="0.3"/>
<rect x="92.9" y="29.2" class="st3" width="0.3" height="1.5"/>
<path class="st3" d="M94.2,30.8c-0.3,0-0.5-0.1-0.7-0.3l0.2-0.2c0.2,0.2,0.4,0.3,0.5,0.3c0.2,0,0.4-0.1,0.4-0.3c0-0.4-1-0.2-1-0.7  c0-0.3,0.3-0.5,0.6-0.5c0.3,0,0.5,0.1,0.6,0.3l-0.2,0.2c-0.1-0.1-0.3-0.3-0.5-0.3c-0.2,0-0.4,0.1-0.4,0.2c0,0.3,1,0.2,1,0.7  C94.8,30.6,94.6,30.8,94.2,30.8"/>
<path class="st3" d="M96.3,29.8c0-0.3-0.2-0.5-0.5-0.5c-0.3,0-0.5,0.2-0.5,0.5v0.4c0,0.3,0.2,0.5,0.5,0.5c0.3,0,0.5-0.2,0.5-0.5  V29.8z M95.8,30.8c-0.5,0-0.7-0.3-0.7-0.6v-0.4c0-0.4,0.3-0.6,0.7-0.6s0.7,0.3,0.7,0.6v0.4C96.6,30.5,96.3,30.8,95.8,30.8"/>
<polygon class="st3" points="97.4,29.1 96.7,31 96.9,31 97.6,29.1 "/>
<rect x="97.7" y="29.2" class="st3" width="0.3" height="1.5"/>
<polygon class="st3" points="98.4,30.8 98.4,29.2 99.5,29.2 99.5,29.5 98.6,29.5 98.6,29.9 99.4,29.9 99.4,30.1 98.6,30.1   98.6,30.5 99.5,30.5 99.5,30.8 "/>
<path class="st3" d="M101,29.7c-0.1-0.2-0.2-0.3-0.5-0.3c-0.3,0-0.5,0.2-0.5,0.5v0.3c0,0.3,0.2,0.5,0.5,0.5c0.2,0,0.4-0.1,0.5-0.3  l0.2,0.1c-0.1,0.2-0.4,0.5-0.7,0.5c-0.5,0-0.7-0.3-0.7-0.7v-0.3c0-0.4,0.3-0.7,0.7-0.7C100.8,29.2,101.1,29.4,101,29.7L101,29.7z"/>
<path class="st3" d="M102.1,30.8v-1.4c0.1,0,0.2-0.1,0.2-0.1h0.1v1.5C102.4,30.8,102.1,30.8,102.1,30.8z"/>
<path class="st3" d="M103.3,30.8H103c0.1-0.5,0.4-1,0.7-1.4h-1v-0.3h1.3v0.3C103.5,29.8,103.3,30.3,103.3,30.8"/>
<path class="st3" d="M105.2,29.8c0-0.2-0.1-0.4-0.4-0.4s-0.4,0.2-0.4,0.4v0.4c0,0.2,0.1,0.4,0.4,0.4s0.4-0.2,0.4-0.4V29.8z   M104.8,30.8c-0.5,0-0.6-0.3-0.6-0.6v-0.4c0-0.4,0.3-0.6,0.6-0.6c0.5,0,0.6,0.3,0.6,0.6v0.4C105.4,30.5,105.2,30.8,104.8,30.8"/>
<path class="st3" d="M105.7,30.8L105.7,30.8c0-0.7,0.9-0.8,0.9-1.2c0-0.1-0.1-0.3-0.4-0.3c-0.2,0-0.3,0.1-0.4,0.3l-0.2-0.2  c0.1-0.2,0.4-0.4,0.6-0.4c0.4,0,0.5,0.3,0.5,0.5c0,0.5-0.7,0.5-0.9,0.9h0.9v0.3L105.7,30.8L105.7,30.8z"/>
<path class="st3" d="M107.2,30.8v-1.4c0.1,0,0.2-0.1,0.2-0.1h0.1v1.5C107.5,30.8,107.2,30.8,107.2,30.8z"/>
<polygon class="st4" points="84.9,34.4 84.9,33 84.8,33.2 84.3,34.4 84,34.4 83.5,33.2 83.4,33 83.4,34.4 83.1,34.4 83.1,32.6   83.5,32.6 84.1,33.8 84.2,34.1 84.3,33.8 84.7,32.6 85.2,32.6 85.2,34.4 "/>
<path class="st4" d="M86.3,33l-0.3,0.7h0.6L86.3,33z M86.9,34.4L86.7,34h-0.8l-0.1,0.5h-0.4l0.7-1.9h0.3l0.7,1.9H86.9z"/>
<polygon class="st4" points="88.9,34.4 88,33.3 87.8,33.2 87.8,34.4 87.5,34.4 87.5,32.6 87.8,32.6 88.6,33.7 88.8,33.9 88.8,32.6   89.2,32.6 89.2,34.4 "/>
<path class="st4" d="M90.2,33L90,33.7h0.6L90.2,33z M90.9,34.4L90.7,34h-0.8l-0.2,0.5h-0.4l0.7-1.9h0.3l0.7,1.9H90.9z"/>
<path class="st4" d="M92.8,34.4l-0.1-0.2c-0.1,0.2-0.4,0.3-0.5,0.3c-0.5,0-0.8-0.4-0.8-0.8v-0.4c0-0.5,0.4-0.8,0.9-0.8  c0.5,0,0.6,0.2,0.8,0.5l-0.3,0.2c-0.1-0.2-0.3-0.4-0.5-0.4c-0.4,0-0.5,0.3-0.5,0.5v0.4c0,0.3,0.2,0.5,0.5,0.5c0.3,0,0.5-0.2,0.5-0.5  v-0.1h-0.5v-0.3h0.7v1C92.9,34.4,92.8,34.4,92.8,34.4z"/>
<polygon class="st4" points="93.3,34.4 93.3,32.6 94.7,32.6 94.7,32.9 93.7,32.9 93.7,33.3 94.5,33.3 94.5,33.6 93.7,33.6   93.7,34.2 94.7,34.2 94.7,34.4 "/>
<polygon class="st4" points="96.8,34.4 96.8,33 96.7,33.2 96.2,34.4 96,34.4 95.5,33.2 95.4,33 95.4,34.4 95,34.4 95,32.6   95.5,32.6 96,33.8 96.1,34.1 96.2,33.8 96.7,32.6 97.2,32.6 97.2,34.4 "/>
<polygon class="st4" points="97.6,34.4 97.6,32.6 98.9,32.6 98.9,32.9 97.9,32.9 97.9,33.3 98.7,33.3 98.7,33.6 97.9,33.6   97.9,34.2 98.9,34.2 98.9,34.4 "/>
<polygon class="st4" points="100.6,34.4 99.8,33.3 99.6,33.2 99.6,34.4 99.3,34.4 99.3,32.6 99.6,32.6 100.5,33.7 100.6,33.9   100.6,32.6 100.9,32.6 100.9,34.4 "/>
<polygon class="st4" points="102.2,32.9 102.2,34.4 101.9,34.4 101.9,32.9 101.3,32.9 101.3,32.6 102.8,32.6 102.8,32.9 "/>
<path class="st4" d="M104.6,34.5c-0.4,0-0.5-0.1-0.8-0.4l0.2-0.3c0.3,0.2,0.5,0.3,0.7,0.3c0.3,0,0.4-0.1,0.4-0.3  c0-0.5-1.2-0.2-1.2-0.9c0-0.4,0.3-0.5,0.7-0.5c0.4,0,0.6,0.2,0.8,0.4l-0.2,0.2c-0.2-0.2-0.4-0.3-0.5-0.3c-0.3,0-0.5,0.1-0.5,0.3  c0,0.4,1.2,0.3,1.2,0.9C105.3,34.2,105.1,34.5,104.6,34.5"/>
<polygon class="st4" points="106.5,33.7 106.5,34.4 106.2,34.4 106.2,33.7 105.5,32.6 105.9,32.6 106.4,33.4 106.9,32.6 107.2,32.6   "/>
<path class="st4" d="M108.1,34.5c-0.4,0-0.5-0.1-0.8-0.4l0.2-0.2c0.3,0.2,0.5,0.3,0.7,0.3s0.4-0.1,0.4-0.3c0-0.5-1.2-0.2-1.2-0.9  c0-0.4,0.3-0.5,0.7-0.5c0.4,0,0.6,0.2,0.8,0.4l-0.2,0.2c-0.2-0.2-0.4-0.3-0.5-0.3c-0.3,0-0.5,0.1-0.5,0.3c0,0.4,1.2,0.3,1.2,0.9  C109,34.2,108.6,34.5,108.1,34.5"/>
<polygon class="st4" points="110.1,32.9 110.1,34.4 109.8,34.4 109.8,32.9 109.1,32.9 109.1,32.6 110.8,32.6 110.8,32.9 "/>
<polygon class="st4" points="111,34.4 111,32.6 112.4,32.6 112.4,32.9 111.4,32.9 111.4,33.3 112.2,33.3 112.2,33.6 111.4,33.6   111.4,34.2 112.4,34.2 112.4,34.4 "/>
<polygon class="st4" points="114.6,34.4 114.6,33 114.5,33.2 113.9,34.4 113.7,34.4 113.2,33.2 113.1,33 113.1,34.4 112.8,34.4   112.8,32.6 113.2,32.6 113.7,33.8 113.8,34.1 113.9,33.8 114.5,32.6 114.9,32.6 114.9,34.4 "/>
<path class="st4" d="M116,34.5c-0.4,0-0.5-0.1-0.8-0.4l0.2-0.3c0.3,0.2,0.5,0.3,0.7,0.3c0.3,0,0.4-0.1,0.4-0.3  c0-0.5-1.2-0.2-1.2-0.9c0-0.4,0.3-0.5,0.7-0.5c0.4,0,0.6,0.2,0.8,0.4l-0.3,0.3c-0.2-0.2-0.4-0.3-0.5-0.3c-0.3,0-0.5,0.1-0.5,0.3  c0,0.4,1.2,0.3,1.2,0.9C116.8,34.2,116.5,34.5,116,34.5"/>
<path class="st4" d="M87.3,36.1c-0.1-0.2-0.3-0.4-0.5-0.4c-0.4,0-0.5,0.3-0.5,0.5v0.4c0,0.3,0.2,0.5,0.5,0.5c0.3,0,0.5-0.2,0.5-0.4  l0.3,0.1c-0.1,0.3-0.4,0.5-0.8,0.5c-0.5,0-0.9-0.4-0.9-0.8v-0.4c0-0.5,0.4-0.8,0.9-0.8c0.4,0,0.7,0.3,0.8,0.5L87.3,36.1z"/>
<polygon class="st4" points="87.9,37.4 87.9,35.6 89.2,35.6 89.2,35.9 88.2,35.9 88.2,36.3 89,36.3 89,36.6 88.2,36.6 88.2,37.1   89.2,37.1 89.2,37.4 "/>
<path class="st4" d="M90.8,36.1c0-0.1-0.1-0.3-0.3-0.3H90v0.5h0.5C90.6,36.4,90.8,36.3,90.8,36.1L90.8,36.1z M91,37.4  c-0.2,0-0.3-0.1-0.3-0.3v-0.3c0-0.2-0.1-0.3-0.4-0.3h-0.5v0.8h-0.4v-1.9h0.8c0.5,0,0.6,0.2,0.6,0.5v0.1c0,0.2-0.1,0.4-0.4,0.5  c0.3,0,0.4,0.2,0.4,0.4V37c0,0.1,0,0.2,0.1,0.2L91,37.4L91,37.4L91,37.4z"/>
<polygon class="st4" points="92.3,35.9 92.3,37.4 92,37.4 92,35.9 91.3,35.9 91.3,35.6 92.9,35.6 92.9,35.9 "/>
<rect x="93.2" y="35.6" class="st4" width="0.4" height="1.9"/>
<polygon class="st4" points="94.3,35.9 94.3,36.4 95.1,36.4 95.1,36.7 94.3,36.7 94.3,37.4 94,37.4 94,35.6 95.4,35.6 95.4,35.9 "/>
<rect x="95.7" y="35.6" class="st4" width="0.4" height="1.9"/>
<path class="st4" d="M97.7,36.1c-0.1-0.2-0.3-0.4-0.5-0.4c-0.4,0-0.5,0.3-0.5,0.5v0.4c0,0.3,0.2,0.5,0.5,0.5c0.3,0,0.5-0.2,0.5-0.4  L98,37c-0.1,0.3-0.4,0.5-0.8,0.5c-0.5,0-0.9-0.4-0.9-0.8v-0.4c0-0.5,0.4-0.8,0.9-0.8c0.4,0,0.7,0.3,0.8,0.5L97.7,36.1z"/>
<path class="st4" d="M99.1,36l-0.4,0.7h0.6L99.1,36z M99.6,37.4L99.5,37h-0.8l-0.2,0.5h-0.4l0.7-1.9h0.3l0.7,1.9H99.6z"/>
<polygon class="st4" points="100.9,35.9 100.9,37.4 100.5,37.4 100.5,35.9 99.9,35.9 99.9,35.6 101.5,35.6 101.5,35.9 "/>
<rect x="101.9" y="35.6" class="st4" width="0.4" height="1.9"/>
<path class="st4" d="M103.9,36.3c0-0.3-0.2-0.5-0.5-0.5c-0.4,0-0.5,0.3-0.5,0.5v0.4c0,0.3,0.2,0.5,0.5,0.5c0.4,0,0.5-0.3,0.5-0.5  V36.3z M103.4,37.5c-0.5,0-0.8-0.4-0.8-0.8v-0.5c0-0.5,0.3-0.8,0.8-0.8c0.5,0,0.8,0.4,0.8,0.8v0.5C104.3,37.1,104,37.5,103.4,37.5"/>
<polygon class="st4" points="106,37.4 105.1,36.3 105,36.1 105,37.4 104.6,37.4 104.6,35.6 104.9,35.6 105.8,36.7 105.9,36.9   105.9,35.6 106.2,35.6 106.2,37.4 "/>
<path class="st4" d="M108.6,36.9c0-0.2-0.1-0.3-0.3-0.3h-0.5v0.5h0.5C108.5,37.1,108.6,37,108.6,36.9L108.6,36.9z M108.6,36.1  c0-0.1-0.1-0.3-0.3-0.3h-0.5v0.5h0.5C108.5,36.4,108.6,36.3,108.6,36.1L108.6,36.1z M108.3,37.4h-0.9v-1.9h0.9  c0.5,0,0.6,0.2,0.6,0.5l0,0c0,0.2-0.1,0.4-0.4,0.4c0.3,0,0.4,0.2,0.4,0.4v0.1C108.9,37.2,108.7,37.4,108.3,37.4"/>
<path class="st4" d="M110.6,36.3c0-0.3-0.2-0.5-0.5-0.5c-0.4,0-0.5,0.3-0.5,0.5v0.4c0,0.3,0.2,0.5,0.5,0.5c0.4,0,0.5-0.3,0.5-0.5  V36.3z M110,37.5c-0.5,0-0.8-0.4-0.8-0.8v-0.5c0-0.5,0.3-0.8,0.8-0.8c0.5,0,0.8,0.4,0.8,0.8v0.5C110.9,37.1,110.6,37.5,110,37.5"/>
<path class="st4" d="M112.6,36.3c0-0.3-0.2-0.5-0.5-0.5h-0.5v1.3h0.5c0.4,0,0.5-0.2,0.5-0.5V36.3z M112,37.4h-0.8v-1.9h0.8  c0.5,0,0.8,0.4,0.8,0.7v0.5C112.9,37.1,112.6,37.4,112,37.4"/>
<polygon class="st4" points="114,36.7 114,37.4 113.7,37.4 113.7,36.7 113,35.6 113.4,35.6 113.9,36.4 114.4,35.6 114.7,35.6 "/>
<path class="st4" d="M95.8,14c0-0.5,1.4-0.9,3.3-0.9s3.3,0.5,3.3,0.9c0,0.5-1.4,0.9-3.3,0.9C97.2,15,95.8,14.5,95.8,14"/>
<polygon class="st4" points="101.1,13.7 100.5,22.9 98.1,23 97.1,13.9 "/>
<path class="st4" d="M81.3,24.8l-0.5,0.8h0.9L81.3,24.8z M82.2,26.5l-0.3-0.5h-1.2l-0.3,0.5h-0.4l1.1-2h0.3l1.1,2H82.2z"/>
<path class="st4" d="M86.6,25c-0.2-0.2-0.5-0.4-0.8-0.4c-0.5,0-0.8,0.4-0.8,0.7l0,0c0,0.4,0.3,0.7,0.9,0.7c0.4,0,0.6-0.2,0.8-0.4  L87,26c-0.2,0.2-0.6,0.4-1.1,0.4c-0.7,0-1.3-0.5-1.3-1.1v-0.1c0-0.5,0.5-1.1,1.3-1.1c0.5,0,0.8,0.2,1,0.4L86.6,25z"/>
<path class="st4" d="M91,25c-0.2-0.2-0.5-0.4-0.8-0.4c-0.5,0-0.8,0.4-0.8,0.7l0,0c0,0.4,0.3,0.7,0.9,0.7c0.4,0,0.6-0.2,0.8-0.4  l0.3,0.3c-0.2,0.2-0.6,0.4-1.1,0.4c-0.7,0-1.3-0.5-1.3-1.1v-0.1c0-0.5,0.5-1.1,1.3-1.1c0.5,0,0.8,0.2,1,0.4L91,25z"/>
<path class="st4" d="M95.2,25.1c0-0.2-0.1-0.3-0.5-0.3h-0.8v0.6h0.8C95,25.4,95.2,25.3,95.2,25.1L95.2,25.1z M95.3,26.5  c-0.1,0-0.2-0.2-0.2-0.4v-0.2c0-0.2-0.1-0.3-0.5-0.3h-0.7v0.8h-0.4v-2h1.1c0.6,0,0.9,0.3,0.9,0.5c0,0.2-0.1,0.5-0.5,0.5  c0.4,0,0.5,0.2,0.5,0.5v0.2c0,0.2,0,0.3,0.1,0.4l0,0L95.3,26.5L95.3,26.5z"/>
<polygon class="st4" points="98,26.5 98,24.5 99.8,24.5 99.8,24.7 98.4,24.7 98.4,25.3 99.5,25.3 99.5,25.7 98.4,25.7 98.4,26.2   99.8,26.2 99.8,26.5 "/>
<path class="st4" d="M104,25.5c0-0.4-0.3-0.6-0.8-0.6h-0.6v1.4h0.6C103.7,26.2,104,25.9,104,25.5L104,25.5z M103.2,26.5h-1v-2h1  c0.7,0,1.2,0.5,1.2,1v0.1C104.3,26,103.9,26.5,103.2,26.5"/>
<rect x="106.7" y="24.5" class="st4" width="0.4" height="2"/>
<polygon class="st4" points="110.7,24.7 110.7,26.5 110.3,26.5 110.3,24.7 109.4,24.7 109.4,24.5 111.6,24.5 111.6,24.7 "/>
<polygon class="st4" points="113.9,26.5 113.9,24.5 115.7,24.5 115.7,24.7 114.3,24.7 114.3,25.3 115.4,25.3 115.4,25.7 114.3,25.7   114.3,26.2 115.7,26.2 115.7,26.5 "/>
<path class="st4" d="M119.9,25.5c0-0.4-0.3-0.6-0.8-0.6h-0.6v1.4h0.6C119.6,26.2,119.9,25.9,119.9,25.5L119.9,25.5z M119.1,26.5h-1  v-2h1c0.7,0,1.2,0.5,1.2,1v0.1C120.3,26,119.8,26.5,119.1,26.5"/>
<path class="st2" d="M97.7,10.7c-1.5-3.1,1.4-2.5,1.8-4.2C99.9,8.6,97.6,8,97.7,10.7 M101.9,8.4c0,0,0.3,1.4-1,1.9  c0.4-1.4-0.4-1.8-0.5-2c0.9-0.8,2.3-2.2,0.4-6.7c0,0,0.5,2.9-0.7,4.1c-1.4,1.2-4.4,1.9-4.4,4.3c0.1,2.5,1.6,2.6,2.4,2.6  c0.5,0,1.4,0,1.9,0c0.5-0.1,0.8-0.1,1.1-0.3C102.4,11.5,102.4,9.7,101.9,8.4"/>
<path class="st4" d="M101.9,12c0-0.1-0.1-0.1-0.1-0.2s0-0.3,0-0.3s-0.1,0.2-0.2,0.3c0,0.1-0.1,0.1-0.2,0.1c-0.1,0-0.3-0.1-0.4-0.1  c0,0-0.1-0.1-0.1-0.2c0-0.1,0-0.3,0-0.3s-0.1,0.2-0.2,0.3c0,0.1-0.1,0.1-0.2,0.1c-0.1,0-0.3,0-0.4-0.1c0,0-0.1-0.1-0.1-0.2  s-0.1-0.3-0.1-0.3s-0.1,0.2-0.2,0.3c0,0.1-0.1,0.1-0.2,0.2c-0.1,0-0.3,0-0.4,0c0,0-0.1-0.1-0.1-0.2s-0.1-0.3-0.1-0.3  s-0.1,0.2-0.1,0.3S99,11.5,99,11.6c-0.1,0-0.3,0-0.4,0c0,0-0.1-0.1-0.1-0.2c-0.1-0.1-0.1-0.3-0.1-0.3s-0.1,0.2-0.1,0.3  s-0.1,0.1-0.1,0.2c-0.1,0-0.3,0-0.4,0l-0.1-0.1c-0.1-0.1-0.1-0.3-0.1-0.3s0,0.2-0.1,0.3c0,0.1-0.1,0.1-0.1,0.2c-0.1,0-0.3,0-0.4,0.1  c-0.1,0-0.1-0.1-0.1-0.1c-0.1-0.1-0.2-0.3-0.2-0.3s0,0.2-0.1,0.3c0,0.1-0.1,0.1-0.1,0.2c-0.1,0-0.3,0.1-0.4,0.1  c-0.1,0-0.1-0.1-0.2-0.1c-0.1-0.1-0.2-0.3-0.2-0.3s0,0.2,0,0.3c0,0.1-0.1,0.1-0.1,0.2c-0.1,0-0.2,0.1-0.3,0.1  c0.1,0.4,0.3,0.8,0.4,1.2c0.9-0.4,1.9-0.5,2.9-0.5c1,0,2,0.1,2.9,0.5c0.1-0.4,0.3-0.8,0.4-1.2C102.2,12.1,102.1,12,101.9,12"/>
<path class="st4" d="M116.6,17.3c0,0.5-0.3,0.7-0.9,0.7h-1.4v-1.5h1.4C116.4,16.5,116.6,16.7,116.6,17.3L116.6,17.3z M116.6,20.1  c0,0.5-0.3,0.7-0.9,0.7h-1.4v-1.5h1.4C116.4,19.3,116.6,19.5,116.6,20.1L116.6,20.1z M104.6,19.8l0.9-2.6l0.8,2.6H104.6z M84.4,19.8  l0.9-2.6l0.8,2.6H84.4z M118.2,18.7c1.2-0.3,1.8-1.2,1.8-2v-0.1c0-1.5-1.3-2.4-3.3-2.4h-5.9V23l-3.3-9h-3.7l-3.3,8.8l0.4-5.6  c0,0-0.5-0.7-1.7-0.7s-1.6,0.7-1.6,0.7l0.2,1.6l-0.4-0.4l-0.5-0.8l-3-3.6h-2.9v8.9l-3.5-8.9h-3.7l-3.5,9.1h3l0.5-1.5h3.1l0.5,1.5  h3.5h0.1h3.2v-4.3l0.6,0.7l3,3.6h2.7h0.2h2.9l0.5-1.5h3l0.5,1.5h3.5h0.1h5.9c2,0,3.3-0.9,3.3-2.4v-0.2  C120.1,19.8,119.4,18.9,118.2,18.7"/>
<path class="st3" d="M98.6,22.5c0,0.1-0.1,0.2-0.1,0.2c-0.1,0-0.1-0.1-0.2-0.2l0,0c0-0.1-0.3-7.7-0.3-7.7S98.5,20,98.6,22.5  L98.6,22.5L98.6,22.5z"/>
<path class="st3" d="M99.1,22.5c0,0.1-0.1,0.2-0.1,0.2c-0.1,0-0.1-0.1-0.1-0.2l0,0c0-0.1,0-8.4,0-8.4C98.8,14.1,99,20,99.1,22.5  L99.1,22.5z"/>
<path class="st3" d="M99.5,22.5L99.5,22.5c0,0.1-0.1,0.2-0.2,0.2c-0.1,0-0.1-0.1-0.1-0.2l0,0l0,0c0-0.1,0.2-8.4,0.2-8.4  C99.5,14.1,99.5,20,99.5,22.5L99.5,22.5z"/>
<path class="st3" d="M100.1,22.5L100.1,22.5L100.1,22.5L100.1,22.5c0,0.1-0.1,0.2-0.2,0.2c-0.1,0-0.1-0.1-0.1-0.2l0,0l0,0l0,0  c0-0.1,0.5-7.6,0.5-7.6S100.1,20,100.1,22.5"/>
</svg>